<svg width="24" height="24" viewBox="0 0 24 24" fill="none" xmlns="http://www.w3.org/2000/svg">
<path d="M16.5 3V12L13.5 9.75L10.5 12V3" stroke="#636366" stroke-width="1.5" stroke-linecap="round" stroke-linejoin="round"/>
<path d="M4.49999 20.25C4.49875 19.9542 4.5561 19.661 4.66873 19.3875C4.78137 19.114 4.94705 18.8654 5.15623 18.6562C5.36541 18.4471 5.61394 18.2814 5.88749 18.1687C6.16103 18.0561 6.45417 17.9988 6.74999 18H19.5V3H6.74999C6.45417 2.99876 6.16103 3.05612 5.88749 3.16875C5.61394 3.28138 5.36541 3.44707 5.15623 3.65625C4.94705 3.86543 4.78137 4.11396 4.66873 4.3875C4.5561 4.66104 4.49875 4.95418 4.49999 5.25V20.25Z" stroke="#636366" stroke-width="1.5" stroke-linecap="round" stroke-linejoin="round"/>
<path d="M4.5 20.25V21H18" stroke="#636366" stroke-width="1.5" stroke-linecap="round" stroke-linejoin="round"/>
</svg>
